<svg width="64" height="64" viewBox="0 0 64 64" xmlns="http://www.w3.org/2000/svg">
    
    <g fill="#000"><rect x="30.5" y="1" width="3" height="7" rx="1" transform="rotate(0 32 32)" /><rect x="30.5" y="1" width="3" height="7" rx="1" transform="rotate(18 32 32)" /><rect x="30.5" y="1" width="3" height="7" rx="1" transform="rotate(36 32 32)" /><rect x="30.5" y="1" width="3" height="7" rx="1" transform="rotate(54 32 32)" /><rect x="30.5" y="1" width="3" height="7" rx="1" transform="rotate(72 32 32)" /><rect x="30.5" y="1" width="3" height="7" rx="1" transform="rotate(90 32 32)" /><rect x="30.5" y="1" width="3" height="7" rx="1" transform="rotate(108 32 32)" /><rect x="30.5" y="1" width="3" height="7" rx="1" transform="rotate(126 32 32)" /><rect x="30.5" y="1" width="3" height="7" rx="1" transform="rotate(144 32 32)" /><rect x="30.5" y="1" width="3" height="7" rx="1" transform="rotate(162 32 32)" /><rect x="30.5" y="1" width="3" height="7" rx="1" transform="rotate(180 32 32)" /><rect x="30.5" y="1" width="3" height="7" rx="1" transform="rotate(198 32 32)" /><rect x="30.5" y="1" width="3" height="7" rx="1" transform="rotate(216 32 32)" /><rect x="30.5" y="1" width="3" height="7" rx="1" transform="rotate(234 32 32)" /><rect x="30.5" y="1" width="3" height="7" rx="1" transform="rotate(252 32 32)" /><rect x="30.5" y="1" width="3" height="7" rx="1" transform="rotate(270 32 32)" /><rect x="30.5" y="1" width="3" height="7" rx="1" transform="rotate(288 32 32)" /><rect x="30.5" y="1" width="3" height="7" rx="1" transform="rotate(306 32 32)" /><rect x="30.5" y="1" width="3" height="7" rx="1" transform="rotate(324 32 32)" /><rect x="30.5" y="1" width="3" height="7" rx="1" transform="rotate(342 32 32)" /></g>
    <circle cx="32" cy="32" r="26" fill="#000" />
    <circle cx="32" cy="32" r="19" fill="#fff" />
    <circle cx="32" cy="32" r="15" fill="#000" />
    <polygon points="32,20 37,29 27,29" fill="#fff" transform="rotate(0 32 32)" /><polygon points="32,20 37,29 27,29" fill="#fff" transform="rotate(72 32 32)" /><polygon points="32,20 37,29 27,29" fill="#fff" transform="rotate(144 32 32)" /><polygon points="32,20 37,29 27,29" fill="#fff" transform="rotate(216 32 32)" /><polygon points="32,20 37,29 27,29" fill="#fff" transform="rotate(288 32 32)" />
    <circle cx="32" cy="32" r="4" fill="#fff" />
  </svg>